<svg width="244" height="18" viewBox="0 0 244 18" fill="none" xmlns="http://www.w3.org/2000/svg"><path d="M5.103 0C3.61.115 2.429.5 1.553 1.133a3.45 3.45 0 0 0-1.158 1.41C.138 3.12 0 3.813 0 4.643c.004 1.146.29 2.07.856 2.83a5.481 5.481 0 0 0 2.256 1.775c.36.155.725.272 1.089.371a4.205 4.205 0 0 1-.59-.672C2.92 7.975 2.61 6.66 2.61 5.03c0-1.633.346-2.96 1.103-3.936A3.666 3.666 0 0 1 5.103.001zm6.545 17.57a1.543 1.543 0 0 1-.212-.388c-.13-.386-.173-.863-.177-1.485V1.917c.004-.623.046-1.097.177-1.479.05-.137.127-.265.216-.381L8.38 0c.056.05.12.095.166.156.17.222.258.484.318.781.06.3.085.64.085 1.04v13.6c-.003.671-.063 1.18-.258 1.598-.07.148-.173.276-.29.392l3.246.004zM21.457 0c1.492.113 2.673.499 3.55 1.132.52.374.895.834 1.157 1.41.258.577.396 1.27.396 2.1-.004 1.147-.29 2.07-.856 2.83a5.48 5.48 0 0 1-2.256 1.775 8.07 8.07 0 0 1-1.09.371c.213-.194.41-.417.591-.672.69-.972 1.001-2.288 1.001-3.918 0-1.633-.347-2.96-1.103-3.935A3.64 3.64 0 0 0 21.457 0zm-6.545 17.571c.088-.12.162-.25.212-.389.13-.385.173-.862.177-1.485V1.917c-.004-.622-.046-1.096-.177-1.478a1.456 1.456 0 0 0-.216-.382L18.183 0c-.057.05-.12.096-.167.156-.17.223-.258.485-.318.782-.06.3-.085.64-.085 1.04v13.599c.004.672.064 1.181.258 1.598.071.149.174.276.29.393l-3.25.003zM42.338 3.92c0-.39.318-.708.69-.708h3.942c2.794 0 4.632 1.486 4.632 3.925v.036c0 2.67-2.227 4.049-4.862 4.049h-3.005v3.748a.71.71 0 0 1-.708.707.706.706 0 0 1-.69-.707V3.92zm4.455 6.029c2.051 0 3.395-1.097 3.395-2.723V7.19c0-1.769-1.326-2.688-3.324-2.688h-3.13V9.95h3.06zm7.745 4.72l5.02-10.98c.178-.389.443-.618.885-.618h.07c.425 0 .708.23.867.618l5.02 10.962a.945.945 0 0 1 .089.354.672.672 0 0 1-.672.672c-.336 0-.566-.23-.69-.513l-1.29-2.846h-6.79l-1.29 2.881c-.124.301-.354.478-.672.478a.634.634 0 0 1-.637-.637.8.8 0 0 1 .089-.371zm8.751-3.625l-2.846-6.33-2.847 6.33h5.693zm8.168-7.124c0-.39.318-.708.69-.708h4.632c1.52 0 2.74.46 3.518 1.238.601.601.955 1.468.955 2.44v.035c0 2.034-1.38 3.218-3.306 3.59l3.076 3.96c.142.159.23.318.23.513 0 .37-.354.69-.707.69-.283 0-.495-.16-.654-.372l-3.483-4.526h-3.554v4.19a.71.71 0 0 1-.707.707.706.706 0 0 1-.69-.707V3.92zm5.198 5.604c1.856 0 3.183-.954 3.183-2.546v-.035c0-1.52-1.167-2.44-3.165-2.44h-3.82v5.021h3.802zm9.885-5.693c0-.389.317-.707.689-.707a.71.71 0 0 1 .707.707v6.772L94.99 3.37c.16-.141.319-.247.548-.247.372 0 .672.336.672.69 0 .194-.088.353-.23.494l-4.384 4.35 4.703 5.799c.123.16.194.3.194.513a.721.721 0 0 1-.707.707c-.265 0-.442-.141-.566-.318l-4.614-5.746-2.67 2.67v2.687a.71.71 0 0 1-.707.707.706.706 0 0 1-.69-.707V3.83zm14.921 11.051V3.92c0-.39.318-.708.689-.708h7.691c.354 0 .637.283.637.637a.634.634 0 0 1-.637.636h-6.983v4.226h6.188c.353 0 .636.3.636.637a.634.634 0 0 1-.636.636h-6.188v4.332h7.072c.353 0 .636.283.636.636a.634.634 0 0 1-.636.637h-7.78a.706.706 0 0 1-.689-.707zM115.605 3.92c0-.39.319-.708.69-.708h4.632c1.521 0 2.741.46 3.519 1.238.601.601.954 1.468.954 2.44v.035c0 2.034-1.379 3.218-3.306 3.59l3.077 3.96c.141.159.229.318.229.513 0 .37-.353.69-.707.69-.283 0-.495-.16-.654-.372l-3.483-4.526h-3.554v4.19a.71.71 0 0 1-.707.707.706.706 0 0 1-.69-.707V3.92zm5.199 5.604c1.856 0 3.182-.954 3.182-2.546v-.035c0-1.52-1.167-2.44-3.165-2.44h-3.819v5.021h3.802zm17.485-5.604c0-.39.318-.708.69-.708h3.942c2.794 0 4.633 1.486 4.633 3.925v.036c0 2.67-2.228 4.049-4.863 4.049h-3.005v3.748a.71.71 0 0 1-.707.707.706.706 0 0 1-.69-.707V3.92zm4.456 6.029c2.05 0 3.394-1.097 3.394-2.723V7.19c0-1.769-1.326-2.688-3.324-2.688h-3.129V9.95h3.059zm9.653-6.029c0-.39.319-.708.69-.708h4.632c1.521 0 2.741.46 3.519 1.238.601.601.954 1.468.954 2.44v.035c0 2.034-1.379 3.218-3.306 3.59l3.077 3.96c.141.159.229.318.229.513 0 .37-.353.69-.707.69-.283 0-.495-.16-.654-.372l-3.483-4.526h-3.554v4.19a.71.71 0 0 1-.707.707.706.706 0 0 1-.69-.707V3.92zm5.198 5.604c1.857 0 3.183-.954 3.183-2.546v-.035c0-1.52-1.167-2.44-3.165-2.44h-3.819v5.021h3.801zm9.123 5.145l5.022-10.98c.176-.389.442-.618.884-.618h.07c.425 0 .707.23.867.618l5.021 10.962a.944.944 0 0 1 .088.354c0 .371-.3.672-.672.672-.336 0-.565-.23-.689-.513l-1.291-2.846h-6.789l-1.291 2.881c-.124.301-.353.478-.672.478a.634.634 0 0 1-.636-.637.81.81 0 0 1 .088-.371zm8.752-3.625l-2.846-6.33-2.847 6.33h5.693zm6.984-1.608V9.4c0-3.5 2.617-6.4 6.259-6.4 1.998 0 3.271.654 4.42 1.609.142.124.283.318.283.566 0 .371-.336.69-.707.69a.834.834 0 0 1-.46-.16c-.955-.849-2.033-1.414-3.554-1.414-2.74 0-4.791 2.227-4.791 5.074V9.4c0 2.864 2.068 5.11 4.791 5.11 1.538 0 2.617-.53 3.678-1.503a.641.641 0 0 1 .442-.194c.353 0 .672.318.672.671a.66.66 0 0 1-.23.495c-1.22 1.114-2.564 1.822-4.597 1.822-3.572 0-6.206-2.812-6.206-6.365zm19.165-4.933h-3.589a.65.65 0 0 1-.654-.636c0-.354.301-.655.654-.655h8.593c.353 0 .654.301.654.655a.65.65 0 0 1-.654.636h-3.589V14.97a.71.71 0 0 1-.708.707.71.71 0 0 1-.707-.707V4.503zm10.609-.672c0-.389.318-.707.689-.707a.71.71 0 0 1 .707.707V14.97a.71.71 0 0 1-.707.707.706.706 0 0 1-.689-.707V3.83zM219 9.436V9.4c0-3.5 2.617-6.4 6.259-6.4 1.998 0 3.271.654 4.42 1.609.141.124.283.318.283.566 0 .371-.336.69-.707.69a.834.834 0 0 1-.46-.16c-.955-.849-2.033-1.414-3.554-1.414-2.74 0-4.791 2.227-4.791 5.074V9.4c0 2.864 2.068 5.11 4.791 5.11 1.538 0 2.617-.53 3.678-1.503a.641.641 0 0 1 .442-.194c.353 0 .672.318.672.671a.66.66 0 0 1-.23.495c-1.22 1.114-2.564 1.822-4.597 1.822-3.572 0-6.206-2.812-6.206-6.365zm15.895 5.446V3.92c0-.39.318-.708.689-.708h7.691c.354 0 .637.283.637.637a.634.634 0 0 1-.637.636h-6.984v4.226h6.188c.354 0 .637.3.637.637a.634.634 0 0 1-.637.636h-6.188v4.332h7.072c.354 0 .637.283.637.636a.634.634 0 0 1-.637.637h-7.779a.706.706 0 0 1-.689-.707z" fill="#010202"/></svg>